<svg xmlns="http://www.w3.org/2000/svg" version="1.1" xmlns:xlink="http://www.w3.org/1999/xlink" xmlns:svgjs="http://svgjs.dev/svgjs" width="2000" height="1500" viewBox="0 0 2000 1500"><rect width="2000" height="1500" fill="#000000"></rect><g transform="matrix(0.4444444444444444,0,0,0.4444444444444444,555.5558166666668,250)"><svg viewBox="0 0 320 360" data-background-color="#000000" preserveAspectRatio="xMidYMid meet" height="2250" width="2000" xmlns="http://www.w3.org/2000/svg" xmlns:xlink="http://www.w3.org/1999/xlink"><g id="tight-bounds" transform="matrix(1,0,0,1,-0.000046999999995023245,0)"><svg viewBox="0 0 320 360" height="360" width="320"><rect width="320.000141" height="360" fill="url(#91b352e6-5c19-4a47-8aaf-55b15af7cf48)" mask="url(#2b805dc7-d8cc-4978-9a4e-61f703caee97)" data-fill-palette-color="tertiary"></rect><g><svg></svg></g><g><svg viewBox="0 0 320 360" height="360" width="320"><g><path transform="translate(-74.99272,-51.79039) scale(4.65793,4.65793)" d="M20.6 59.9l0.8 1-0.4-1.3c-0.1-0.6-0.8 0.1-0.4 0.3M21.5 59.3c0.3 0.5 0.6 1 0.6 1.5 0 0.7 0.6 1 1.1 1.2-0.7-0.8-1.1-3-1.7-2.7M59.9 16.9c1.7 0 3.3-0.2 5.1 0.2 4.4 1.1 8.1 3.3 10.6 6.4l7 11.2c0.3 2.8 0.9 5.9 0.8 9.3 0.7 0 0.6-1 1.4-1.2-0.8 2-1.2 4.5-1.4 7.4-0.5-1.6 0-4 0.1-5.3-0.7 1.1-1.1 0.3-1.1-0.2 0.1-0.8-0.3-0.7-0.6-1-1.1-1-1.8-2.1-2.6-3.8 0.5-1.3 0.6-3.2-1-4.2-0.5-0.3-1.1-0.8-1.4-1.6-0.4-1.1-1.1-2.4-0.9-4.1 0.1-0.5-1.5 1.1-2.4 0.4-3.9-2.7-7.8-5.8-12.5-8.4-2.5 0-4.3-0.9-5.2-2-0.8-1-0.2-2.3 1-2.4 0.7 0 1.5-0.2 2.1 0.2 0.1-0.4 0.5-0.9 1-0.9M50 14.6l0.2 0.1c1 0.2 1.5 1.6 2.6 1.1 0 0.7 0.1 1.4-0.1 1.9-0.3 0.8-1.2 0.8-1.9 0.8-6.7-0.4-10.6 2.4-14.7 4.8-1.1 0.7-2.3 1.2-3.2 2.1-4.3 4-9 7.7-10.1 15.1l-0.9 8.2c-0.1 0.9-1.1 1.8-0.9 2.9l0.7 4.9c-0.7-0.7-1.1 0.2-0.9 0.6 0.1 0.3 0.5 1.3 1.1 0.4 0.8 1.5 1.6 4.4 2.7 5.7 3.4 4 7.8 7.6 11.4 11.2 0.9-0.2 1.6-0.2 1.8-0.8 0.3 0.6-0.3 1.2-0.8 1.3 1.6 1 3.4 1.9 5.8 2.1 3.1 0.2 6 0.7 8.7 1.4 1.4-0.4 2.8-0.6 4.3-0.7 0.5 0 0.8-0.8 1.4-1l0.1-1c0.6 0.9 0.5-0.3 0.1-0.9 0.7 0.6 0.9 1.1 1.2 1.5 0-0.3 0.8-1.4 0.8-0.1l0.2-1.3c0.3-0.2 0.4 1.1 0.7 0.2 0.3-0.9 0.9-0.2 1.5-0.5-0.2 0.4-0.1 1.2 0.6 0.7l0.8-0.7c0.5 1.2 1.3 0.7 1.7 0.5 4.4-2.8 8.8-6.1 13-9.4l-0.1 1.3 0.5-1.6c0.5 0.5 0.9 0.1 1.1-0.2 0.6-1 1.4-2 2.7-2.9-1.6 4.3-3.5 7.7-5.9 10.5l-1 1.2c0 0.7-0.2 1.6-1 1.7-0.4 0.1-1.2-0.2-1.8 0.4-0.3 0.4 0.7 1.2-0.1 0.6-0.7-0.5-1.4 0-2.2 0.2-0.6 0.2 0.4 0.8 0.6 1.2 0.2 0.4 0.4 0.8 0.3 1.3l-1.1-1.2c-1.3 0.7-2.1 2-3.2 3-0.5 0.4-0.3 1.1-0.3 1.7-0.7 0-1.5-0.2-1.9 0.2-0.3 0.4-0.2 1-0.2 1.6-1-0.1-1.1-1.6-2-1.3-0.9 0.2-1.9 0.3-2.7 0.8 0.6 1.2-1 0.5-0.8 0.7-1.5-0.9-2.8-1.6-4.4-1-3.4-1.1-7.6-0.6-10.7-0.2 0-0.5 0.1-1-0.1-1.1-0.2 0.5-0.8 0.3-0.7 0.3-1.9-1.3-3.8-2.1-5.8-3.2-1.8 0.2-3.5-0.7-4-1.2-1.4-1.3-3-0.6-4.3-0.9-2.8-0.7-3.8-3.6-4.1-5.6-0.2-1-1-1.4-1.3-1.3-1.3-4.2-3.3-8-4.9-11.9-0.4-1-0.3-2-0.3-3.1 0.5 0.2 1 0.1 0.9-0.6-0.5-3.3-1.7-5.8-3-8.2 0.7-3.4 0.8-7.4 2.4-10.4 1.4-2.7 4-4.1 5.8-6.4 0.6-0.8 0.6-1.9 1.2-2.6 2-2 4-4.1 6.2-5.9 1-0.8 2.2 0 3.7-0.3 0.5-1.8 2.5-3.4 4.4-2.9 0.8 0.2 2.4-1.9 2.9-2.1 0.8-0.3 0.4 0.8 0.4 1.5 1.9-1.5 4.5-2.3 6.9-3.2" fill="url(#91b352e6-5c19-4a47-8aaf-55b15af7cf48)" fill-rule="nonzero" stroke="none" stroke-width="1" stroke-linecap="butt" stroke-linejoin="miter" stroke-miterlimit="10" stroke-dasharray="" stroke-dashoffset="0" font-family="none" font-weight="none" font-size="none" text-anchor="none" style="mix-blend-mode: normal" data-fill-palette-color="tertiary"></path></g><g transform="matrix(1,0,0,1,75.96846663630073,90)"><svg viewBox="0 0 168.06306672739854 180" height="180" width="168.06306672739854"><g><svg viewBox="0 0 168.06306672739854 180" height="180" width="168.06306672739854"><g><svg viewBox="0 0 192 205.63709012912975" height="180" width="168.06306672739854"><g transform="matrix(1,0,0,1,0,103.16032850993935)"><svg viewBox="0 0 192 102.4767616191904" height="102.4767616191904" width="192"><g id="textblocktransform"><svg viewBox="0 0 192 102.4767616191904" height="102.4767616191904" width="192" id="textblock"><g><svg viewBox="0 0 192 102.4767616191904" height="102.4767616191904" width="192"><g transform="matrix(1,0,0,1,0,0)"><svg width="192" viewBox="3.7 -35 66.7 35.6" height="102.4767616191904" data-palette-color="url(#01fca9ca-97d0-4004-b751-b46da82d0bb0)"></svg></g></svg></g></svg></g></svg></g><g transform="matrix(1,0,0,1,36.672,0)"><svg viewBox="0 0 118.656 88.20650954742061" height="88.20650954742061" width="118.656"><g><svg xmlns="http://www.w3.org/2000/svg" xmlns:xlink="http://www.w3.org/1999/xlink" version="1.1" x="0" y="0" viewBox="3.035 17.316000000000003 94.78999999999999 70.46499999999999" enable-background="new 0 0 100 100" xml:space="preserve" height="88.20650954742061" width="118.656" class="icon-icon-0" data-fill-palette-color="accent" id="icon-0"></svg></g></svg></g><g></g></svg></g></svg></g></svg></g></svg></g><defs></defs><mask id="7896e277-0504-4bdf-a43e-ada9019c422f"><g id="SvgjsG1115"><svg viewBox="0 0 320 360" height="360" width="320"><g><svg></svg></g><g><svg viewBox="0 0 320 360" height="360" width="320"><g><path transform="translate(-74.99272,-51.79039) scale(4.65793,4.65793)" d="M20.6 59.9l0.8 1-0.4-1.3c-0.1-0.6-0.8 0.1-0.4 0.3M21.5 59.3c0.3 0.5 0.6 1 0.6 1.5 0 0.7 0.6 1 1.1 1.2-0.7-0.8-1.1-3-1.7-2.7M59.9 16.9c1.7 0 3.3-0.2 5.1 0.2 4.4 1.1 8.1 3.3 10.6 6.4l7 11.2c0.3 2.8 0.9 5.9 0.8 9.3 0.7 0 0.6-1 1.4-1.2-0.8 2-1.2 4.5-1.4 7.4-0.5-1.6 0-4 0.1-5.3-0.7 1.1-1.1 0.3-1.1-0.2 0.1-0.8-0.3-0.7-0.6-1-1.1-1-1.8-2.1-2.6-3.8 0.5-1.3 0.6-3.2-1-4.2-0.5-0.3-1.1-0.8-1.4-1.6-0.4-1.1-1.1-2.4-0.9-4.1 0.1-0.5-1.5 1.1-2.4 0.4-3.9-2.7-7.8-5.8-12.5-8.4-2.5 0-4.3-0.9-5.2-2-0.8-1-0.2-2.3 1-2.4 0.7 0 1.5-0.2 2.1 0.2 0.1-0.4 0.5-0.9 1-0.9M50 14.6l0.2 0.1c1 0.2 1.5 1.6 2.6 1.1 0 0.7 0.1 1.4-0.1 1.9-0.3 0.8-1.2 0.8-1.9 0.8-6.7-0.4-10.6 2.4-14.7 4.8-1.1 0.7-2.3 1.2-3.2 2.1-4.3 4-9 7.7-10.1 15.1l-0.9 8.2c-0.1 0.9-1.1 1.8-0.9 2.9l0.7 4.9c-0.7-0.7-1.1 0.2-0.9 0.6 0.1 0.3 0.5 1.3 1.1 0.4 0.8 1.5 1.6 4.4 2.7 5.7 3.4 4 7.8 7.6 11.4 11.2 0.9-0.2 1.6-0.2 1.8-0.8 0.3 0.6-0.3 1.2-0.8 1.3 1.6 1 3.4 1.9 5.8 2.1 3.1 0.2 6 0.7 8.7 1.4 1.4-0.4 2.8-0.6 4.3-0.7 0.5 0 0.8-0.8 1.4-1l0.1-1c0.6 0.9 0.5-0.3 0.1-0.9 0.7 0.6 0.9 1.1 1.2 1.5 0-0.3 0.8-1.4 0.8-0.1l0.2-1.3c0.3-0.2 0.4 1.1 0.7 0.2 0.3-0.9 0.9-0.2 1.5-0.5-0.2 0.4-0.1 1.2 0.6 0.7l0.8-0.7c0.5 1.2 1.3 0.7 1.7 0.5 4.4-2.8 8.8-6.1 13-9.4l-0.1 1.3 0.5-1.6c0.5 0.5 0.9 0.1 1.1-0.2 0.6-1 1.4-2 2.7-2.9-1.6 4.3-3.5 7.7-5.9 10.5l-1 1.2c0 0.7-0.2 1.6-1 1.7-0.4 0.1-1.2-0.2-1.8 0.4-0.3 0.4 0.7 1.2-0.1 0.6-0.7-0.5-1.4 0-2.2 0.2-0.6 0.2 0.4 0.8 0.6 1.2 0.2 0.4 0.4 0.8 0.3 1.3l-1.1-1.2c-1.3 0.7-2.1 2-3.2 3-0.5 0.4-0.3 1.1-0.3 1.7-0.7 0-1.5-0.2-1.9 0.2-0.3 0.4-0.2 1-0.2 1.6-1-0.1-1.1-1.6-2-1.3-0.9 0.2-1.9 0.3-2.7 0.8 0.6 1.2-1 0.5-0.8 0.7-1.5-0.9-2.8-1.6-4.4-1-3.4-1.1-7.6-0.6-10.7-0.2 0-0.5 0.1-1-0.1-1.1-0.2 0.5-0.8 0.3-0.7 0.3-1.9-1.3-3.8-2.1-5.8-3.2-1.8 0.2-3.5-0.7-4-1.2-1.4-1.3-3-0.6-4.3-0.9-2.8-0.7-3.8-3.6-4.1-5.6-0.2-1-1-1.4-1.3-1.3-1.3-4.2-3.3-8-4.9-11.9-0.4-1-0.3-2-0.3-3.1 0.5 0.2 1 0.1 0.9-0.6-0.5-3.3-1.7-5.8-3-8.2 0.7-3.4 0.8-7.4 2.4-10.4 1.4-2.7 4-4.1 5.8-6.4 0.6-0.8 0.6-1.9 1.2-2.6 2-2 4-4.1 6.2-5.9 1-0.8 2.2 0 3.7-0.3 0.5-1.8 2.5-3.4 4.4-2.9 0.8 0.2 2.4-1.9 2.9-2.1 0.8-0.3 0.4 0.8 0.4 1.5 1.9-1.5 4.5-2.3 6.9-3.2" fill="black" fill-rule="nonzero" stroke="none" stroke-width="1" stroke-linecap="butt" stroke-linejoin="miter" stroke-miterlimit="10" stroke-dasharray="" stroke-dashoffset="0" font-family="none" font-weight="none" font-size="none" text-anchor="none" style="mix-blend-mode: normal"></path></g><g transform="matrix(1,0,0,1,75.96846663630073,90)"><svg viewBox="0 0 168.06306672739854 180" height="180" width="168.06306672739854"><g><svg viewBox="0 0 168.06306672739854 180" height="180" width="168.06306672739854"><g><svg viewBox="0 0 192 205.63709012912975" height="180" width="168.06306672739854"><g transform="matrix(1,0,0,1,0,103.16032850993935)"><svg viewBox="0 0 192 102.4767616191904" height="102.4767616191904" width="192"><g id="SvgjsG1114"><svg viewBox="0 0 192 102.4767616191904" height="102.4767616191904" width="192" id="SvgjsSvg1113"><g><svg viewBox="0 0 192 102.4767616191904" height="102.4767616191904" width="192"><g transform="matrix(1,0,0,1,0,0)"><svg width="192" viewBox="3.7 -35 66.7 35.6" height="102.4767616191904" data-palette-color="url(#01fca9ca-97d0-4004-b751-b46da82d0bb0)"><path d="M23-34.4Q26.2-34.4 28.7-32.93 31.2-31.45 32.6-28.88 34-26.3 34-23.1L34-23.1 34-22.45Q34-19.25 32.6-16.65 31.2-14.05 28.7-12.58 26.2-11.1 23-11.1L23-11.1 14.75-11.1 14.75 0 3.7 0 3.7-34.4 23-34.4ZM14.75-26.25L14.75-19.15 19.3-19.15Q21.05-19.15 21.93-20.05 22.8-20.95 22.8-22.5L22.8-22.5 22.8-22.9Q22.8-24.5 21.93-25.38 21.05-26.25 19.3-26.25L19.3-26.25 14.75-26.25ZM54.25-35Q60.85-35 65.1-32.33 69.35-29.65 69.45-24.4L69.45-24.4 69.45-23.8 59.1-23.8 59.1-24Q59.1-25.5 58-26.5 56.9-27.5 54.65-27.5L54.65-27.5Q52.45-27.5 51.27-26.85 50.1-26.2 50.1-25.25L50.1-25.25Q50.1-23.9 51.7-23.25 53.3-22.6 56.85-21.9L56.85-21.9Q61-21.05 63.67-20.13 66.35-19.2 68.35-17.1 70.35-15 70.4-11.4L70.4-11.4Q70.4-5.3 66.27-2.35 62.15 0.6 55.25 0.6L55.25 0.6Q47.2 0.6 42.72-2.1 38.25-4.8 38.25-11.65L38.25-11.65 48.7-11.65Q48.7-9.05 50.05-8.18 51.4-7.3 54.25-7.3L54.25-7.3Q56.35-7.3 57.72-7.75 59.1-8.2 59.1-9.6L59.1-9.6Q59.1-10.85 57.57-11.48 56.05-12.1 52.6-12.8L52.6-12.8Q48.4-13.7 45.65-14.68 42.9-15.65 40.85-17.9 38.8-20.15 38.8-24L38.8-24Q38.8-29.65 43.17-32.33 47.55-35 54.25-35L54.25-35Z" opacity="1" transform="matrix(1,0,0,1,0,0)" fill="white" class="wordmark-text-0" id="SvgjsPath1112"></path></svg></g></svg></g></svg></g></svg></g><g transform="matrix(1,0,0,1,36.672,0)"><svg viewBox="0 0 118.656 88.20650954742061" height="88.20650954742061" width="118.656"><g><svg xmlns="http://www.w3.org/2000/svg" xmlns:xlink="http://www.w3.org/1999/xlink" version="1.1" x="0" y="0" viewBox="3.035 17.316000000000003 94.78999999999999 70.46499999999999" enable-background="new 0 0 100 100" xml:space="preserve" height="88.20650954742061" width="118.656" class="icon-icon-0" data-fill-palette-color="accent" id="SvgjsSvg1111"><g fill="black"><rect x="15.405" y="82.258" width="70.059" height="5.523" fill="black"></rect><path d="M22.107 75.201c0-1.852-1.501-3.353-3.35-3.353-1.852 0-3.353 1.501-3.353 3.353 0 1.847 1.501 3.354 3.353 3.354C20.606 78.555 22.107 77.048 22.107 75.201z" fill="black"></path><path d="M37.946 75.201c0-1.852-1.499-3.353-3.351-3.353s-3.35 1.501-3.35 3.353c0 1.847 1.498 3.354 3.35 3.354S37.946 77.048 37.946 75.201z" fill="black"></path><path d="M53.784 75.201c0-1.852-1.501-3.353-3.347-3.353-1.852 0-3.353 1.501-3.353 3.353 0 1.847 1.501 3.354 3.353 3.354C52.283 78.555 53.784 77.048 53.784 75.201z" fill="black"></path><path d="M69.62 75.201c0-1.852-1.498-3.353-3.347-3.353-1.852 0-3.351 1.501-3.351 3.353 0 1.847 1.499 3.354 3.351 3.354C68.122 78.555 69.62 77.048 69.62 75.201z" fill="black"></path><path d="M82.117 71.849c-1.857 0-3.358 1.501-3.358 3.353 0 1.847 1.501 3.354 3.358 3.354 1.846 0 3.347-1.507 3.347-3.354C85.464 73.35 83.963 71.849 82.117 71.849z" fill="black"></path><path d="M89.984 35.655c-4.33 0-7.84 3.511-7.84 7.84 0 1.674 0.528 3.221 1.421 4.494l-15.344 9.23L54.374 41.723c2.328-1.359 3.897-3.878 3.897-6.77 0-3.763-2.652-6.903-6.188-7.662v-3.786h3.553v-2.63h-3.553v-3.559h-2.63v3.559h-3.562v2.63h3.562v3.676c-3.867 0.483-6.861 3.775-6.861 7.772 0 2.713 1.378 5.104 3.472 6.511L29.489 57.22l-12.546-8.761c1.107-1.352 1.772-3.08 1.772-4.964 0-4.329-3.51-7.84-7.84-7.84s-7.84 3.511-7.84 7.84c0 4.33 3.51 7.841 7.84 7.841 0.453 0 0.896-0.047 1.327-0.121l3.168 16.931H85.5l3.164-16.93c0.431 0.073 0.87 0.12 1.32 0.12 4.33 0 7.841-3.511 7.841-7.841C97.825 39.166 94.314 35.655 89.984 35.655zM10.876 47.567c-2.248 0-4.07-1.823-4.07-4.072 0-2.248 1.822-4.071 4.07-4.071 2.249 0 4.071 1.823 4.071 4.071C14.947 45.744 13.125 47.567 10.876 47.567zM50.432 39.025c-2.249 0-4.07-1.823-4.07-4.072 0-2.248 1.821-4.071 4.07-4.071s4.071 1.823 4.071 4.071C54.503 37.202 52.681 39.025 50.432 39.025zM89.984 47.567c-2.249 0-4.069-1.823-4.069-4.072 0-2.248 1.82-4.071 4.069-4.071 2.25 0 4.072 1.823 4.072 4.071C94.057 45.744 92.234 47.567 89.984 47.567z" fill="black"></path></g></svg></g></svg></g><g></g></svg></g></svg></g></svg></g></svg></g><defs><mask></mask></defs></svg><rect width="320" height="360" fill="black" stroke="none" visibility="hidden"></rect></g></mask><linearGradient x1="0" x2="1" y1="0.5" y2="0.5" id="01fca9ca-97d0-4004-b751-b46da82d0bb0"><stop stop-color="#ffa62e" offset="0"></stop><stop stop-color="#f71b3d" offset="1"></stop></linearGradient><rect width="320.000047" height="360" fill="url(#01fca9ca-97d0-4004-b751-b46da82d0bb0)" mask="url(#7896e277-0504-4bdf-a43e-ada9019c422f)" data-fill-palette-color="primary"></rect><mask id="89d21ad6-8a82-4ca5-90dd-99c53a48bda4"><g id="SvgjsG1134"><svg viewBox="0 0 320 360" height="360" width="320"><g><svg></svg></g><g><svg viewBox="0 0 320 360" height="360" width="320"><g><path transform="translate(-74.99272,-51.79039) scale(4.65793,4.65793)" d="M20.6 59.9l0.8 1-0.4-1.3c-0.1-0.6-0.8 0.1-0.4 0.3M21.5 59.3c0.3 0.5 0.6 1 0.6 1.5 0 0.7 0.6 1 1.1 1.2-0.7-0.8-1.1-3-1.7-2.7M59.9 16.9c1.7 0 3.3-0.2 5.1 0.2 4.4 1.1 8.1 3.3 10.6 6.4l7 11.2c0.3 2.8 0.9 5.9 0.8 9.3 0.7 0 0.6-1 1.4-1.2-0.8 2-1.2 4.5-1.4 7.4-0.5-1.6 0-4 0.1-5.3-0.7 1.1-1.1 0.3-1.1-0.2 0.1-0.8-0.3-0.7-0.6-1-1.1-1-1.8-2.1-2.6-3.8 0.5-1.3 0.6-3.2-1-4.2-0.5-0.3-1.1-0.8-1.4-1.6-0.4-1.1-1.1-2.4-0.9-4.1 0.1-0.5-1.5 1.1-2.4 0.4-3.9-2.7-7.8-5.8-12.5-8.4-2.5 0-4.3-0.9-5.2-2-0.8-1-0.2-2.3 1-2.4 0.7 0 1.5-0.2 2.1 0.2 0.1-0.4 0.5-0.9 1-0.9M50 14.6l0.2 0.1c1 0.2 1.5 1.6 2.6 1.1 0 0.7 0.1 1.4-0.1 1.9-0.3 0.8-1.2 0.8-1.9 0.8-6.7-0.4-10.6 2.4-14.7 4.8-1.1 0.7-2.3 1.2-3.2 2.1-4.3 4-9 7.7-10.1 15.1l-0.9 8.2c-0.1 0.9-1.1 1.8-0.9 2.9l0.7 4.9c-0.7-0.7-1.1 0.2-0.9 0.6 0.1 0.3 0.5 1.3 1.1 0.4 0.8 1.5 1.6 4.4 2.7 5.7 3.4 4 7.8 7.6 11.4 11.2 0.9-0.2 1.6-0.2 1.8-0.8 0.3 0.6-0.3 1.2-0.8 1.3 1.6 1 3.4 1.9 5.8 2.1 3.1 0.2 6 0.7 8.7 1.4 1.4-0.4 2.8-0.6 4.3-0.7 0.5 0 0.8-0.8 1.4-1l0.1-1c0.6 0.9 0.5-0.3 0.1-0.9 0.7 0.6 0.9 1.1 1.2 1.5 0-0.3 0.8-1.4 0.8-0.1l0.2-1.3c0.3-0.2 0.4 1.1 0.7 0.2 0.3-0.9 0.9-0.2 1.5-0.5-0.2 0.4-0.1 1.2 0.6 0.7l0.8-0.7c0.5 1.2 1.3 0.7 1.7 0.5 4.4-2.8 8.8-6.1 13-9.4l-0.1 1.3 0.5-1.6c0.5 0.5 0.9 0.1 1.1-0.2 0.6-1 1.4-2 2.7-2.9-1.6 4.3-3.5 7.7-5.9 10.5l-1 1.2c0 0.7-0.2 1.6-1 1.7-0.4 0.1-1.2-0.2-1.8 0.4-0.3 0.4 0.7 1.2-0.1 0.6-0.7-0.5-1.4 0-2.2 0.2-0.6 0.2 0.4 0.8 0.6 1.2 0.2 0.4 0.4 0.8 0.3 1.3l-1.1-1.2c-1.3 0.7-2.1 2-3.2 3-0.5 0.4-0.3 1.1-0.3 1.7-0.7 0-1.5-0.2-1.9 0.2-0.3 0.4-0.2 1-0.2 1.6-1-0.1-1.1-1.6-2-1.3-0.9 0.2-1.9 0.3-2.7 0.8 0.6 1.2-1 0.5-0.8 0.7-1.5-0.9-2.8-1.6-4.4-1-3.4-1.1-7.6-0.6-10.7-0.2 0-0.5 0.1-1-0.1-1.1-0.2 0.5-0.8 0.3-0.7 0.3-1.9-1.3-3.8-2.1-5.8-3.2-1.8 0.2-3.5-0.7-4-1.2-1.4-1.3-3-0.6-4.3-0.9-2.8-0.7-3.8-3.6-4.1-5.6-0.2-1-1-1.4-1.3-1.3-1.3-4.2-3.3-8-4.9-11.9-0.4-1-0.3-2-0.3-3.1 0.5 0.2 1 0.1 0.9-0.6-0.5-3.3-1.7-5.8-3-8.2 0.7-3.4 0.8-7.4 2.4-10.4 1.4-2.7 4-4.1 5.8-6.4 0.6-0.8 0.6-1.9 1.2-2.6 2-2 4-4.1 6.2-5.9 1-0.8 2.2 0 3.7-0.3 0.5-1.8 2.5-3.4 4.4-2.9 0.8 0.2 2.4-1.9 2.9-2.1 0.8-0.3 0.4 0.8 0.4 1.5 1.9-1.5 4.5-2.3 6.9-3.2" fill="black" fill-rule="nonzero" stroke="none" stroke-width="1" stroke-linecap="butt" stroke-linejoin="miter" stroke-miterlimit="10" stroke-dasharray="" stroke-dashoffset="0" font-family="none" font-weight="none" font-size="none" text-anchor="none" style="mix-blend-mode: normal"></path></g><g transform="matrix(1,0,0,1,75.96846663630073,90)"><svg viewBox="0 0 168.06306672739854 180" height="180" width="168.06306672739854"><g><svg viewBox="0 0 168.06306672739854 180" height="180" width="168.06306672739854"><g><svg viewBox="0 0 192 205.63709012912975" height="180" width="168.06306672739854"><g transform="matrix(1,0,0,1,0,103.16032850993935)"><svg viewBox="0 0 192 102.4767616191904" height="102.4767616191904" width="192"><g id="SvgjsG1133"><svg viewBox="0 0 192 102.4767616191904" height="102.4767616191904" width="192" id="SvgjsSvg1132"><g><svg viewBox="0 0 192 102.4767616191904" height="102.4767616191904" width="192"><g transform="matrix(1,0,0,1,0,0)"><svg width="192" viewBox="3.7 -35 66.7 35.6" height="102.4767616191904" data-palette-color="url(#01fca9ca-97d0-4004-b751-b46da82d0bb0)"></svg></g></svg></g></svg></g></svg></g><g transform="matrix(1,0,0,1,36.672,0)"><svg viewBox="0 0 118.656 88.20650954742061" height="88.20650954742061" width="118.656"><g><svg xmlns="http://www.w3.org/2000/svg" xmlns:xlink="http://www.w3.org/1999/xlink" version="1.1" x="0" y="0" viewBox="3.035 17.316000000000003 94.78999999999999 70.46499999999999" enable-background="new 0 0 100 100" xml:space="preserve" height="88.20650954742061" width="118.656" class="icon-icon-0" data-fill-palette-color="accent" id="SvgjsSvg1131"><g fill="white"><rect x="15.405" y="82.258" width="70.059" height="5.523" fill="white"></rect><path d="M22.107 75.201c0-1.852-1.501-3.353-3.35-3.353-1.852 0-3.353 1.501-3.353 3.353 0 1.847 1.501 3.354 3.353 3.354C20.606 78.555 22.107 77.048 22.107 75.201z" fill="white"></path><path d="M37.946 75.201c0-1.852-1.499-3.353-3.351-3.353s-3.35 1.501-3.35 3.353c0 1.847 1.498 3.354 3.35 3.354S37.946 77.048 37.946 75.201z" fill="white"></path><path d="M53.784 75.201c0-1.852-1.501-3.353-3.347-3.353-1.852 0-3.353 1.501-3.353 3.353 0 1.847 1.501 3.354 3.353 3.354C52.283 78.555 53.784 77.048 53.784 75.201z" fill="white"></path><path d="M69.62 75.201c0-1.852-1.498-3.353-3.347-3.353-1.852 0-3.351 1.501-3.351 3.353 0 1.847 1.499 3.354 3.351 3.354C68.122 78.555 69.62 77.048 69.62 75.201z" fill="white"></path><path d="M82.117 71.849c-1.857 0-3.358 1.501-3.358 3.353 0 1.847 1.501 3.354 3.358 3.354 1.846 0 3.347-1.507 3.347-3.354C85.464 73.35 83.963 71.849 82.117 71.849z" fill="white"></path><path d="M89.984 35.655c-4.33 0-7.84 3.511-7.84 7.84 0 1.674 0.528 3.221 1.421 4.494l-15.344 9.23L54.374 41.723c2.328-1.359 3.897-3.878 3.897-6.77 0-3.763-2.652-6.903-6.188-7.662v-3.786h3.553v-2.63h-3.553v-3.559h-2.63v3.559h-3.562v2.63h3.562v3.676c-3.867 0.483-6.861 3.775-6.861 7.772 0 2.713 1.378 5.104 3.472 6.511L29.489 57.22l-12.546-8.761c1.107-1.352 1.772-3.08 1.772-4.964 0-4.329-3.51-7.84-7.84-7.84s-7.84 3.511-7.84 7.84c0 4.33 3.51 7.841 7.84 7.841 0.453 0 0.896-0.047 1.327-0.121l3.168 16.931H85.5l3.164-16.93c0.431 0.073 0.87 0.12 1.32 0.12 4.33 0 7.841-3.511 7.841-7.841C97.825 39.166 94.314 35.655 89.984 35.655zM10.876 47.567c-2.248 0-4.07-1.823-4.07-4.072 0-2.248 1.822-4.071 4.07-4.071 2.249 0 4.071 1.823 4.071 4.071C14.947 45.744 13.125 47.567 10.876 47.567zM50.432 39.025c-2.249 0-4.07-1.823-4.07-4.072 0-2.248 1.821-4.071 4.07-4.071s4.071 1.823 4.071 4.071C54.503 37.202 52.681 39.025 50.432 39.025zM89.984 47.567c-2.249 0-4.069-1.823-4.069-4.072 0-2.248 1.82-4.071 4.069-4.071 2.25 0 4.072 1.823 4.072 4.071C94.057 45.744 92.234 47.567 89.984 47.567z" fill="white"></path></g></svg></g></svg></g><g></g></svg></g></svg></g></svg></g></svg></g><defs><mask></mask></defs><mask><g id="SvgjsG1130"><svg viewBox="0 0 320 360" height="360" width="320"><g><svg></svg></g><g><svg viewBox="0 0 320 360" height="360" width="320"><g><path transform="translate(-74.99272,-51.79039) scale(4.65793,4.65793)" d="M20.6 59.9l0.8 1-0.4-1.3c-0.1-0.6-0.8 0.1-0.4 0.3M21.5 59.3c0.3 0.5 0.6 1 0.6 1.5 0 0.7 0.6 1 1.1 1.2-0.7-0.8-1.1-3-1.7-2.7M59.9 16.9c1.7 0 3.3-0.2 5.1 0.2 4.4 1.1 8.1 3.3 10.6 6.4l7 11.2c0.3 2.8 0.9 5.9 0.8 9.3 0.7 0 0.6-1 1.4-1.2-0.8 2-1.2 4.5-1.4 7.4-0.5-1.6 0-4 0.1-5.3-0.7 1.1-1.1 0.3-1.1-0.2 0.1-0.8-0.3-0.7-0.6-1-1.1-1-1.8-2.1-2.6-3.8 0.5-1.3 0.6-3.2-1-4.2-0.5-0.3-1.1-0.8-1.4-1.6-0.4-1.1-1.1-2.4-0.9-4.1 0.1-0.5-1.5 1.1-2.4 0.4-3.9-2.7-7.8-5.8-12.5-8.4-2.5 0-4.3-0.9-5.2-2-0.8-1-0.2-2.3 1-2.4 0.7 0 1.5-0.2 2.1 0.2 0.1-0.4 0.5-0.9 1-0.9M50 14.6l0.2 0.1c1 0.2 1.5 1.6 2.6 1.1 0 0.7 0.1 1.4-0.1 1.9-0.3 0.8-1.2 0.8-1.9 0.8-6.7-0.4-10.6 2.4-14.7 4.8-1.1 0.7-2.3 1.2-3.2 2.1-4.3 4-9 7.7-10.1 15.1l-0.9 8.2c-0.1 0.9-1.1 1.8-0.9 2.9l0.7 4.9c-0.7-0.7-1.1 0.2-0.9 0.6 0.1 0.3 0.5 1.3 1.1 0.4 0.8 1.5 1.6 4.4 2.7 5.7 3.4 4 7.8 7.6 11.4 11.2 0.9-0.2 1.6-0.2 1.8-0.8 0.3 0.6-0.3 1.2-0.8 1.3 1.6 1 3.4 1.9 5.8 2.1 3.1 0.2 6 0.7 8.7 1.4 1.4-0.4 2.8-0.6 4.3-0.7 0.5 0 0.8-0.8 1.4-1l0.1-1c0.6 0.9 0.5-0.3 0.1-0.9 0.7 0.6 0.9 1.1 1.2 1.5 0-0.3 0.8-1.4 0.8-0.1l0.2-1.3c0.3-0.2 0.4 1.1 0.7 0.2 0.3-0.9 0.9-0.2 1.5-0.5-0.2 0.4-0.1 1.2 0.6 0.7l0.8-0.7c0.5 1.2 1.3 0.7 1.7 0.5 4.4-2.8 8.8-6.1 13-9.4l-0.1 1.3 0.5-1.6c0.5 0.5 0.9 0.1 1.1-0.2 0.6-1 1.4-2 2.7-2.9-1.6 4.3-3.5 7.7-5.9 10.5l-1 1.2c0 0.7-0.2 1.6-1 1.7-0.4 0.1-1.2-0.2-1.8 0.4-0.3 0.4 0.7 1.2-0.1 0.6-0.7-0.5-1.4 0-2.2 0.2-0.6 0.2 0.4 0.8 0.6 1.2 0.2 0.4 0.4 0.8 0.3 1.3l-1.1-1.2c-1.3 0.7-2.1 2-3.2 3-0.5 0.4-0.3 1.1-0.3 1.7-0.7 0-1.5-0.2-1.9 0.2-0.3 0.4-0.2 1-0.2 1.6-1-0.1-1.1-1.6-2-1.3-0.9 0.2-1.9 0.3-2.7 0.8 0.6 1.2-1 0.5-0.8 0.7-1.5-0.9-2.8-1.6-4.4-1-3.4-1.1-7.6-0.6-10.7-0.2 0-0.5 0.1-1-0.1-1.1-0.2 0.5-0.8 0.3-0.7 0.3-1.9-1.3-3.8-2.1-5.8-3.2-1.8 0.2-3.5-0.7-4-1.2-1.4-1.3-3-0.6-4.3-0.9-2.8-0.7-3.8-3.6-4.1-5.6-0.2-1-1-1.4-1.3-1.3-1.3-4.2-3.3-8-4.9-11.9-0.4-1-0.3-2-0.3-3.1 0.5 0.2 1 0.1 0.9-0.6-0.5-3.3-1.7-5.8-3-8.2 0.7-3.4 0.8-7.4 2.4-10.4 1.4-2.7 4-4.1 5.8-6.4 0.6-0.8 0.6-1.9 1.2-2.6 2-2 4-4.1 6.2-5.9 1-0.8 2.2 0 3.7-0.3 0.5-1.8 2.5-3.4 4.4-2.9 0.8 0.2 2.4-1.9 2.9-2.1 0.8-0.3 0.4 0.8 0.4 1.5 1.9-1.5 4.5-2.3 6.9-3.2" fill="black" fill-rule="nonzero" stroke="none" stroke-width="1" stroke-linecap="butt" stroke-linejoin="miter" stroke-miterlimit="10" stroke-dasharray="" stroke-dashoffset="0" font-family="none" font-weight="none" font-size="none" text-anchor="none" style="mix-blend-mode: normal"></path></g><g transform="matrix(1,0,0,1,75.96846663630073,90)"><svg viewBox="0 0 168.06306672739854 180" height="180" width="168.06306672739854"><g><svg viewBox="0 0 168.06306672739854 180" height="180" width="168.06306672739854"><g><svg viewBox="0 0 192 205.63709012912975" height="180" width="168.06306672739854"><g transform="matrix(1,0,0,1,0,103.16032850993935)"><svg viewBox="0 0 192 102.4767616191904" height="102.4767616191904" width="192"><g id="SvgjsG1129"><svg viewBox="0 0 192 102.4767616191904" height="102.4767616191904" width="192" id="SvgjsSvg1128"><g><svg viewBox="0 0 192 102.4767616191904" height="102.4767616191904" width="192"><g transform="matrix(1,0,0,1,0,0)"><svg width="192" viewBox="3.7 -35 66.7 35.6" height="102.4767616191904" data-palette-color="url(#01fca9ca-97d0-4004-b751-b46da82d0bb0)"><path d="M23-34.4Q26.2-34.4 28.7-32.93 31.2-31.45 32.6-28.88 34-26.3 34-23.1L34-23.1 34-22.45Q34-19.25 32.6-16.65 31.2-14.05 28.7-12.58 26.2-11.1 23-11.1L23-11.1 14.75-11.1 14.75 0 3.7 0 3.7-34.4 23-34.4ZM14.75-26.25L14.75-19.15 19.3-19.15Q21.05-19.15 21.93-20.05 22.8-20.95 22.8-22.5L22.8-22.5 22.8-22.9Q22.8-24.5 21.93-25.38 21.05-26.25 19.3-26.25L19.3-26.25 14.75-26.25ZM54.25-35Q60.85-35 65.1-32.33 69.35-29.65 69.45-24.4L69.45-24.4 69.45-23.8 59.1-23.8 59.1-24Q59.1-25.5 58-26.5 56.9-27.5 54.65-27.5L54.65-27.5Q52.45-27.5 51.27-26.85 50.1-26.2 50.1-25.25L50.1-25.25Q50.1-23.9 51.7-23.25 53.3-22.6 56.85-21.9L56.85-21.9Q61-21.05 63.67-20.13 66.35-19.2 68.35-17.1 70.35-15 70.4-11.4L70.4-11.4Q70.4-5.3 66.27-2.35 62.15 0.6 55.25 0.6L55.25 0.6Q47.2 0.6 42.72-2.1 38.25-4.8 38.25-11.65L38.25-11.65 48.7-11.65Q48.7-9.05 50.05-8.18 51.4-7.3 54.25-7.3L54.25-7.3Q56.35-7.3 57.72-7.75 59.1-8.2 59.1-9.6L59.1-9.6Q59.1-10.85 57.57-11.48 56.05-12.1 52.6-12.8L52.6-12.8Q48.4-13.7 45.65-14.68 42.9-15.65 40.85-17.9 38.8-20.15 38.8-24L38.8-24Q38.8-29.65 43.17-32.33 47.55-35 54.25-35L54.25-35Z" opacity="1" transform="matrix(1,0,0,1,0,0)" fill="black" class="wordmark-text-0" id="SvgjsPath1127"></path></svg></g></svg></g></svg></g></svg></g><g transform="matrix(1,0,0,1,36.672,0)"><svg viewBox="0 0 118.656 88.20650954742061" height="88.20650954742061" width="118.656"><g><svg xmlns="http://www.w3.org/2000/svg" xmlns:xlink="http://www.w3.org/1999/xlink" version="1.1" x="0" y="0" viewBox="3.035 17.316000000000003 94.78999999999999 70.46499999999999" enable-background="new 0 0 100 100" xml:space="preserve" height="88.20650954742061" width="118.656" class="icon-icon-0" data-fill-palette-color="accent" id="SvgjsSvg1126"><g fill="black"><rect x="15.405" y="82.258" width="70.059" height="5.523" fill="black"></rect><path d="M22.107 75.201c0-1.852-1.501-3.353-3.35-3.353-1.852 0-3.353 1.501-3.353 3.353 0 1.847 1.501 3.354 3.353 3.354C20.606 78.555 22.107 77.048 22.107 75.201z" fill="black"></path><path d="M37.946 75.201c0-1.852-1.499-3.353-3.351-3.353s-3.35 1.501-3.35 3.353c0 1.847 1.498 3.354 3.35 3.354S37.946 77.048 37.946 75.201z" fill="black"></path><path d="M53.784 75.201c0-1.852-1.501-3.353-3.347-3.353-1.852 0-3.353 1.501-3.353 3.353 0 1.847 1.501 3.354 3.353 3.354C52.283 78.555 53.784 77.048 53.784 75.201z" fill="black"></path><path d="M69.62 75.201c0-1.852-1.498-3.353-3.347-3.353-1.852 0-3.351 1.501-3.351 3.353 0 1.847 1.499 3.354 3.351 3.354C68.122 78.555 69.62 77.048 69.62 75.201z" fill="black"></path><path d="M82.117 71.849c-1.857 0-3.358 1.501-3.358 3.353 0 1.847 1.501 3.354 3.358 3.354 1.846 0 3.347-1.507 3.347-3.354C85.464 73.35 83.963 71.849 82.117 71.849z" fill="black"></path><path d="M89.984 35.655c-4.33 0-7.84 3.511-7.84 7.84 0 1.674 0.528 3.221 1.421 4.494l-15.344 9.23L54.374 41.723c2.328-1.359 3.897-3.878 3.897-6.77 0-3.763-2.652-6.903-6.188-7.662v-3.786h3.553v-2.63h-3.553v-3.559h-2.63v3.559h-3.562v2.63h3.562v3.676c-3.867 0.483-6.861 3.775-6.861 7.772 0 2.713 1.378 5.104 3.472 6.511L29.489 57.22l-12.546-8.761c1.107-1.352 1.772-3.08 1.772-4.964 0-4.329-3.51-7.84-7.84-7.84s-7.84 3.511-7.84 7.84c0 4.33 3.51 7.841 7.84 7.841 0.453 0 0.896-0.047 1.327-0.121l3.168 16.931H85.5l3.164-16.93c0.431 0.073 0.87 0.12 1.32 0.12 4.33 0 7.841-3.511 7.841-7.841C97.825 39.166 94.314 35.655 89.984 35.655zM10.876 47.567c-2.248 0-4.07-1.823-4.07-4.072 0-2.248 1.822-4.071 4.07-4.071 2.249 0 4.071 1.823 4.071 4.071C14.947 45.744 13.125 47.567 10.876 47.567zM50.432 39.025c-2.249 0-4.07-1.823-4.07-4.072 0-2.248 1.821-4.071 4.07-4.071s4.071 1.823 4.071 4.071C54.503 37.202 52.681 39.025 50.432 39.025zM89.984 47.567c-2.249 0-4.069-1.823-4.069-4.072 0-2.248 1.82-4.071 4.069-4.071 2.25 0 4.072 1.823 4.072 4.071C94.057 45.744 92.234 47.567 89.984 47.567z" fill="black"></path></g></svg></g></svg></g><g></g></svg></g></svg></g></svg></g></svg></g><defs><mask></mask></defs></svg><rect width="320" height="360" fill="black" stroke="none" visibility="hidden"></rect></g></mask></svg><rect width="320" height="360" fill="black" stroke="none" visibility="hidden"></rect></g></mask><linearGradient x1="0" x2="1" y1="0.5" y2="0.5" id="5f3b0608-8cd2-4539-8df1-cb38f635d7a6"><stop stop-color="#ffa62e" offset="0"></stop><stop stop-color="#f71b3d" offset="1"></stop></linearGradient><rect width="320.000094" height="360" fill="url(#5f3b0608-8cd2-4539-8df1-cb38f635d7a6)" mask="url(#89d21ad6-8a82-4ca5-90dd-99c53a48bda4)" data-fill-palette-color="accent"></rect><mask id="2b805dc7-d8cc-4978-9a4e-61f703caee97"><g id="SvgjsG1152"><svg viewBox="0 0 320 360" height="360" width="320"><g><svg></svg></g><g><svg viewBox="0 0 320 360" height="360" width="320"><g><path transform="translate(-74.99272,-51.79039) scale(4.65793,4.65793)" d="M20.6 59.9l0.8 1-0.4-1.3c-0.1-0.6-0.8 0.1-0.4 0.3M21.5 59.3c0.3 0.5 0.6 1 0.6 1.5 0 0.7 0.6 1 1.1 1.2-0.7-0.8-1.1-3-1.7-2.7M59.9 16.9c1.7 0 3.3-0.2 5.1 0.2 4.4 1.1 8.1 3.3 10.6 6.4l7 11.2c0.3 2.8 0.9 5.9 0.8 9.3 0.7 0 0.6-1 1.4-1.2-0.8 2-1.2 4.5-1.4 7.4-0.5-1.6 0-4 0.1-5.3-0.7 1.1-1.1 0.3-1.1-0.2 0.1-0.8-0.3-0.7-0.6-1-1.1-1-1.8-2.1-2.6-3.8 0.5-1.3 0.6-3.2-1-4.2-0.5-0.3-1.1-0.8-1.4-1.6-0.4-1.1-1.1-2.4-0.9-4.1 0.1-0.5-1.5 1.1-2.4 0.4-3.9-2.7-7.8-5.8-12.5-8.4-2.5 0-4.3-0.9-5.2-2-0.8-1-0.2-2.3 1-2.4 0.7 0 1.5-0.2 2.1 0.2 0.1-0.4 0.5-0.9 1-0.9M50 14.6l0.2 0.1c1 0.2 1.5 1.6 2.6 1.1 0 0.7 0.1 1.4-0.1 1.9-0.3 0.8-1.2 0.8-1.9 0.8-6.7-0.4-10.6 2.4-14.7 4.8-1.1 0.7-2.3 1.2-3.2 2.1-4.3 4-9 7.7-10.1 15.1l-0.9 8.2c-0.1 0.9-1.1 1.8-0.9 2.9l0.7 4.9c-0.7-0.7-1.1 0.2-0.9 0.6 0.1 0.3 0.5 1.3 1.1 0.4 0.8 1.5 1.6 4.4 2.7 5.7 3.4 4 7.8 7.6 11.4 11.2 0.9-0.2 1.6-0.2 1.8-0.8 0.3 0.6-0.3 1.2-0.8 1.3 1.6 1 3.4 1.9 5.8 2.1 3.1 0.2 6 0.7 8.7 1.4 1.4-0.4 2.8-0.6 4.3-0.7 0.5 0 0.8-0.8 1.4-1l0.1-1c0.6 0.9 0.5-0.3 0.1-0.9 0.7 0.6 0.9 1.1 1.2 1.5 0-0.3 0.8-1.4 0.8-0.1l0.2-1.3c0.3-0.2 0.4 1.1 0.7 0.2 0.3-0.9 0.9-0.2 1.5-0.5-0.2 0.4-0.1 1.2 0.6 0.7l0.8-0.7c0.5 1.2 1.3 0.7 1.7 0.5 4.4-2.8 8.8-6.1 13-9.4l-0.1 1.3 0.5-1.6c0.5 0.5 0.9 0.1 1.1-0.2 0.6-1 1.4-2 2.7-2.9-1.6 4.3-3.5 7.7-5.9 10.5l-1 1.2c0 0.7-0.2 1.6-1 1.7-0.4 0.1-1.2-0.2-1.8 0.4-0.3 0.4 0.7 1.2-0.1 0.6-0.7-0.5-1.4 0-2.2 0.2-0.6 0.2 0.4 0.8 0.6 1.2 0.2 0.4 0.4 0.8 0.3 1.3l-1.1-1.2c-1.3 0.7-2.1 2-3.2 3-0.5 0.4-0.3 1.1-0.3 1.7-0.7 0-1.5-0.2-1.9 0.2-0.3 0.4-0.2 1-0.2 1.6-1-0.1-1.1-1.6-2-1.3-0.9 0.2-1.9 0.3-2.7 0.8 0.6 1.2-1 0.5-0.8 0.7-1.5-0.9-2.8-1.6-4.4-1-3.4-1.1-7.6-0.6-10.7-0.2 0-0.5 0.1-1-0.1-1.1-0.2 0.5-0.8 0.3-0.7 0.3-1.9-1.3-3.8-2.1-5.8-3.2-1.8 0.2-3.5-0.7-4-1.2-1.4-1.3-3-0.6-4.3-0.9-2.8-0.7-3.8-3.6-4.1-5.6-0.2-1-1-1.4-1.3-1.3-1.3-4.2-3.3-8-4.9-11.9-0.4-1-0.3-2-0.3-3.1 0.5 0.2 1 0.1 0.9-0.6-0.5-3.3-1.7-5.8-3-8.2 0.7-3.4 0.8-7.4 2.4-10.4 1.4-2.7 4-4.1 5.8-6.4 0.6-0.8 0.6-1.9 1.2-2.6 2-2 4-4.1 6.2-5.9 1-0.8 2.2 0 3.7-0.3 0.5-1.8 2.5-3.4 4.4-2.9 0.8 0.2 2.4-1.9 2.9-2.1 0.8-0.3 0.4 0.8 0.4 1.5 1.9-1.5 4.5-2.3 6.9-3.2" fill="white" fill-rule="nonzero" stroke="none" stroke-width="1" stroke-linecap="butt" stroke-linejoin="miter" stroke-miterlimit="10" stroke-dasharray="" stroke-dashoffset="0" font-family="none" font-weight="none" font-size="none" text-anchor="none" style="mix-blend-mode: normal"></path></g><g transform="matrix(1,0,0,1,75.96846663630073,90)"><svg viewBox="0 0 168.06306672739854 180" height="180" width="168.06306672739854"><g><svg viewBox="0 0 168.06306672739854 180" height="180" width="168.06306672739854"><g><svg viewBox="0 0 192 205.63709012912975" height="180" width="168.06306672739854"><g transform="matrix(1,0,0,1,0,103.16032850993935)"><svg viewBox="0 0 192 102.4767616191904" height="102.4767616191904" width="192"><g id="SvgjsG1151"><svg viewBox="0 0 192 102.4767616191904" height="102.4767616191904" width="192" id="SvgjsSvg1150"><g><svg viewBox="0 0 192 102.4767616191904" height="102.4767616191904" width="192"><g transform="matrix(1,0,0,1,0,0)"><svg width="192" viewBox="3.7 -35 66.7 35.6" height="102.4767616191904" data-palette-color="url(#01fca9ca-97d0-4004-b751-b46da82d0bb0)"></svg></g></svg></g></svg></g></svg></g><g transform="matrix(1,0,0,1,36.672,0)"><svg viewBox="0 0 118.656 88.20650954742061" height="88.20650954742061" width="118.656"><g><svg xmlns="http://www.w3.org/2000/svg" xmlns:xlink="http://www.w3.org/1999/xlink" version="1.1" x="0" y="0" viewBox="3.035 17.316000000000003 94.78999999999999 70.46499999999999" enable-background="new 0 0 100 100" xml:space="preserve" height="88.20650954742061" width="118.656" class="icon-icon-0" data-fill-palette-color="accent" id="SvgjsSvg1149"></svg></g></svg></g><g></g></svg></g></svg></g></svg></g></svg></g><defs><mask></mask></defs><mask><g id="SvgjsG1148"><svg viewBox="0 0 320 360" height="360" width="320"><g><svg></svg></g><g><svg viewBox="0 0 320 360" height="360" width="320"><g><path transform="translate(-74.99272,-51.79039) scale(4.65793,4.65793)" d="M20.6 59.9l0.8 1-0.4-1.3c-0.1-0.6-0.8 0.1-0.4 0.3M21.5 59.3c0.3 0.5 0.6 1 0.6 1.5 0 0.7 0.6 1 1.1 1.2-0.7-0.8-1.1-3-1.7-2.7M59.9 16.9c1.7 0 3.3-0.2 5.1 0.2 4.4 1.1 8.1 3.3 10.6 6.4l7 11.2c0.3 2.8 0.9 5.9 0.8 9.3 0.7 0 0.6-1 1.4-1.2-0.8 2-1.2 4.5-1.4 7.4-0.5-1.6 0-4 0.1-5.3-0.7 1.1-1.1 0.3-1.1-0.2 0.1-0.8-0.3-0.7-0.6-1-1.1-1-1.8-2.1-2.6-3.8 0.5-1.3 0.6-3.2-1-4.2-0.5-0.3-1.1-0.8-1.4-1.6-0.4-1.1-1.1-2.4-0.9-4.1 0.1-0.5-1.5 1.1-2.4 0.4-3.9-2.7-7.8-5.8-12.5-8.4-2.5 0-4.3-0.9-5.2-2-0.8-1-0.2-2.3 1-2.4 0.7 0 1.5-0.2 2.1 0.2 0.1-0.4 0.5-0.9 1-0.9M50 14.6l0.2 0.1c1 0.2 1.5 1.6 2.6 1.1 0 0.7 0.1 1.4-0.1 1.9-0.3 0.8-1.2 0.8-1.9 0.8-6.7-0.4-10.6 2.4-14.7 4.8-1.1 0.7-2.3 1.2-3.2 2.1-4.3 4-9 7.7-10.1 15.1l-0.9 8.2c-0.1 0.9-1.1 1.8-0.9 2.9l0.7 4.9c-0.7-0.7-1.1 0.2-0.9 0.6 0.1 0.3 0.5 1.3 1.1 0.4 0.8 1.5 1.6 4.4 2.7 5.7 3.4 4 7.8 7.6 11.4 11.2 0.9-0.2 1.6-0.2 1.8-0.8 0.3 0.6-0.3 1.2-0.8 1.3 1.6 1 3.4 1.9 5.8 2.1 3.1 0.2 6 0.7 8.7 1.4 1.4-0.4 2.8-0.6 4.3-0.7 0.5 0 0.8-0.8 1.4-1l0.1-1c0.6 0.9 0.5-0.3 0.1-0.9 0.7 0.6 0.9 1.1 1.2 1.5 0-0.3 0.8-1.4 0.8-0.1l0.2-1.3c0.3-0.2 0.4 1.1 0.7 0.2 0.3-0.9 0.9-0.2 1.5-0.5-0.2 0.4-0.1 1.2 0.6 0.7l0.8-0.7c0.5 1.2 1.3 0.7 1.7 0.5 4.4-2.8 8.8-6.1 13-9.4l-0.1 1.3 0.5-1.6c0.5 0.5 0.9 0.1 1.1-0.2 0.6-1 1.4-2 2.7-2.9-1.6 4.3-3.5 7.7-5.9 10.5l-1 1.2c0 0.7-0.2 1.6-1 1.7-0.4 0.1-1.2-0.2-1.8 0.4-0.3 0.4 0.7 1.2-0.1 0.6-0.7-0.5-1.4 0-2.2 0.2-0.6 0.2 0.4 0.8 0.6 1.2 0.2 0.4 0.4 0.8 0.3 1.3l-1.1-1.2c-1.3 0.7-2.1 2-3.2 3-0.5 0.4-0.3 1.1-0.3 1.7-0.7 0-1.5-0.2-1.9 0.2-0.3 0.4-0.2 1-0.2 1.6-1-0.1-1.1-1.6-2-1.3-0.9 0.2-1.9 0.3-2.7 0.8 0.6 1.2-1 0.5-0.8 0.7-1.5-0.9-2.8-1.6-4.4-1-3.4-1.1-7.6-0.6-10.7-0.2 0-0.5 0.1-1-0.1-1.1-0.2 0.5-0.8 0.3-0.7 0.3-1.9-1.3-3.8-2.1-5.8-3.2-1.8 0.2-3.5-0.7-4-1.2-1.4-1.3-3-0.6-4.3-0.9-2.8-0.7-3.8-3.6-4.1-5.6-0.2-1-1-1.4-1.3-1.3-1.3-4.2-3.3-8-4.9-11.9-0.4-1-0.3-2-0.3-3.1 0.5 0.2 1 0.1 0.9-0.6-0.5-3.3-1.7-5.8-3-8.2 0.7-3.4 0.8-7.4 2.4-10.4 1.4-2.7 4-4.1 5.8-6.4 0.6-0.8 0.6-1.9 1.2-2.6 2-2 4-4.1 6.2-5.9 1-0.8 2.2 0 3.7-0.3 0.5-1.8 2.5-3.4 4.4-2.9 0.8 0.2 2.4-1.9 2.9-2.1 0.8-0.3 0.4 0.8 0.4 1.5 1.9-1.5 4.5-2.3 6.9-3.2" fill="black" fill-rule="nonzero" stroke="none" stroke-width="1" stroke-linecap="butt" stroke-linejoin="miter" stroke-miterlimit="10" stroke-dasharray="" stroke-dashoffset="0" font-family="none" font-weight="none" font-size="none" text-anchor="none" style="mix-blend-mode: normal"></path></g><g transform="matrix(1,0,0,1,75.96846663630073,90)"><svg viewBox="0 0 168.06306672739854 180" height="180" width="168.06306672739854"><g><svg viewBox="0 0 168.06306672739854 180" height="180" width="168.06306672739854"><g><svg viewBox="0 0 192 205.63709012912975" height="180" width="168.06306672739854"><g transform="matrix(1,0,0,1,0,103.16032850993935)"><svg viewBox="0 0 192 102.4767616191904" height="102.4767616191904" width="192"><g id="SvgjsG1147"><svg viewBox="0 0 192 102.4767616191904" height="102.4767616191904" width="192" id="SvgjsSvg1146"><g><svg viewBox="0 0 192 102.4767616191904" height="102.4767616191904" width="192"><g transform="matrix(1,0,0,1,0,0)"><svg width="192" viewBox="3.7 -35 66.7 35.6" height="102.4767616191904" data-palette-color="url(#01fca9ca-97d0-4004-b751-b46da82d0bb0)"><path d="M23-34.4Q26.2-34.4 28.7-32.93 31.2-31.45 32.6-28.88 34-26.3 34-23.1L34-23.1 34-22.45Q34-19.25 32.6-16.65 31.2-14.05 28.7-12.58 26.2-11.1 23-11.1L23-11.1 14.75-11.1 14.75 0 3.7 0 3.7-34.4 23-34.4ZM14.75-26.25L14.75-19.15 19.3-19.15Q21.05-19.15 21.93-20.05 22.8-20.95 22.8-22.5L22.8-22.5 22.8-22.9Q22.8-24.5 21.93-25.38 21.05-26.25 19.3-26.25L19.3-26.25 14.75-26.25ZM54.25-35Q60.85-35 65.1-32.33 69.35-29.65 69.45-24.4L69.45-24.4 69.45-23.8 59.1-23.8 59.1-24Q59.1-25.5 58-26.5 56.9-27.5 54.65-27.5L54.65-27.5Q52.45-27.5 51.27-26.85 50.1-26.2 50.1-25.25L50.1-25.25Q50.1-23.9 51.7-23.25 53.3-22.6 56.85-21.9L56.85-21.9Q61-21.05 63.67-20.13 66.35-19.2 68.35-17.1 70.35-15 70.4-11.4L70.4-11.4Q70.4-5.3 66.27-2.35 62.15 0.6 55.25 0.6L55.25 0.6Q47.2 0.6 42.72-2.1 38.25-4.8 38.25-11.65L38.25-11.65 48.7-11.65Q48.7-9.05 50.05-8.18 51.4-7.3 54.25-7.3L54.25-7.3Q56.35-7.3 57.72-7.75 59.1-8.2 59.1-9.6L59.1-9.6Q59.1-10.85 57.57-11.48 56.05-12.1 52.6-12.8L52.6-12.8Q48.4-13.7 45.65-14.68 42.9-15.65 40.85-17.9 38.8-20.15 38.8-24L38.8-24Q38.8-29.65 43.17-32.33 47.55-35 54.25-35L54.25-35Z" opacity="1" transform="matrix(1,0,0,1,0,0)" fill="black" class="wordmark-text-0" id="SvgjsPath1145"></path></svg></g></svg></g></svg></g></svg></g><g transform="matrix(1,0,0,1,36.672,0)"><svg viewBox="0 0 118.656 88.20650954742061" height="88.20650954742061" width="118.656"><g><svg xmlns="http://www.w3.org/2000/svg" xmlns:xlink="http://www.w3.org/1999/xlink" version="1.1" x="0" y="0" viewBox="3.035 17.316000000000003 94.78999999999999 70.46499999999999" enable-background="new 0 0 100 100" xml:space="preserve" height="88.20650954742061" width="118.656" class="icon-icon-0" data-fill-palette-color="accent" id="SvgjsSvg1144"><g fill="black"><rect x="15.405" y="82.258" width="70.059" height="5.523" fill="black"></rect><path d="M22.107 75.201c0-1.852-1.501-3.353-3.35-3.353-1.852 0-3.353 1.501-3.353 3.353 0 1.847 1.501 3.354 3.353 3.354C20.606 78.555 22.107 77.048 22.107 75.201z" fill="black"></path><path d="M37.946 75.201c0-1.852-1.499-3.353-3.351-3.353s-3.35 1.501-3.35 3.353c0 1.847 1.498 3.354 3.35 3.354S37.946 77.048 37.946 75.201z" fill="black"></path><path d="M53.784 75.201c0-1.852-1.501-3.353-3.347-3.353-1.852 0-3.353 1.501-3.353 3.353 0 1.847 1.501 3.354 3.353 3.354C52.283 78.555 53.784 77.048 53.784 75.201z" fill="black"></path><path d="M69.62 75.201c0-1.852-1.498-3.353-3.347-3.353-1.852 0-3.351 1.501-3.351 3.353 0 1.847 1.499 3.354 3.351 3.354C68.122 78.555 69.62 77.048 69.62 75.201z" fill="black"></path><path d="M82.117 71.849c-1.857 0-3.358 1.501-3.358 3.353 0 1.847 1.501 3.354 3.358 3.354 1.846 0 3.347-1.507 3.347-3.354C85.464 73.35 83.963 71.849 82.117 71.849z" fill="black"></path><path d="M89.984 35.655c-4.33 0-7.84 3.511-7.84 7.84 0 1.674 0.528 3.221 1.421 4.494l-15.344 9.23L54.374 41.723c2.328-1.359 3.897-3.878 3.897-6.77 0-3.763-2.652-6.903-6.188-7.662v-3.786h3.553v-2.63h-3.553v-3.559h-2.63v3.559h-3.562v2.63h3.562v3.676c-3.867 0.483-6.861 3.775-6.861 7.772 0 2.713 1.378 5.104 3.472 6.511L29.489 57.22l-12.546-8.761c1.107-1.352 1.772-3.08 1.772-4.964 0-4.329-3.51-7.84-7.84-7.84s-7.84 3.511-7.84 7.84c0 4.33 3.51 7.841 7.84 7.841 0.453 0 0.896-0.047 1.327-0.121l3.168 16.931H85.5l3.164-16.93c0.431 0.073 0.87 0.12 1.32 0.12 4.33 0 7.841-3.511 7.841-7.841C97.825 39.166 94.314 35.655 89.984 35.655zM10.876 47.567c-2.248 0-4.07-1.823-4.07-4.072 0-2.248 1.822-4.071 4.07-4.071 2.249 0 4.071 1.823 4.071 4.071C14.947 45.744 13.125 47.567 10.876 47.567zM50.432 39.025c-2.249 0-4.07-1.823-4.07-4.072 0-2.248 1.821-4.071 4.07-4.071s4.071 1.823 4.071 4.071C54.503 37.202 52.681 39.025 50.432 39.025zM89.984 47.567c-2.249 0-4.069-1.823-4.069-4.072 0-2.248 1.82-4.071 4.069-4.071 2.25 0 4.072 1.823 4.072 4.071C94.057 45.744 92.234 47.567 89.984 47.567z" fill="black"></path></g></svg></g></svg></g><g></g></svg></g></svg></g></svg></g></svg></g><defs><mask></mask></defs></svg><rect width="320" height="360" fill="black" stroke="none" visibility="hidden"></rect></g></mask><mask><g id="SvgjsG1143"><svg viewBox="0 0 320 360" height="360" width="320"><g><svg></svg></g><g><svg viewBox="0 0 320 360" height="360" width="320"><g><path transform="translate(-74.99272,-51.79039) scale(4.65793,4.65793)" d="M20.6 59.9l0.8 1-0.4-1.3c-0.1-0.6-0.8 0.1-0.4 0.3M21.5 59.3c0.3 0.5 0.6 1 0.6 1.5 0 0.7 0.6 1 1.1 1.2-0.7-0.8-1.1-3-1.7-2.7M59.9 16.9c1.7 0 3.3-0.2 5.1 0.2 4.4 1.1 8.1 3.3 10.6 6.4l7 11.2c0.3 2.8 0.9 5.9 0.8 9.3 0.7 0 0.6-1 1.4-1.2-0.8 2-1.2 4.5-1.4 7.4-0.5-1.6 0-4 0.1-5.3-0.7 1.1-1.1 0.3-1.1-0.2 0.1-0.8-0.3-0.7-0.6-1-1.1-1-1.8-2.1-2.6-3.8 0.5-1.3 0.6-3.2-1-4.2-0.5-0.3-1.1-0.8-1.4-1.6-0.4-1.1-1.1-2.4-0.9-4.1 0.1-0.5-1.5 1.1-2.4 0.4-3.9-2.7-7.8-5.8-12.5-8.4-2.5 0-4.3-0.9-5.2-2-0.8-1-0.2-2.3 1-2.4 0.7 0 1.5-0.2 2.1 0.2 0.1-0.4 0.5-0.9 1-0.9M50 14.6l0.2 0.1c1 0.2 1.5 1.6 2.6 1.1 0 0.7 0.1 1.4-0.1 1.9-0.3 0.8-1.2 0.8-1.9 0.8-6.7-0.4-10.6 2.4-14.7 4.8-1.1 0.7-2.3 1.2-3.2 2.1-4.3 4-9 7.7-10.1 15.1l-0.9 8.2c-0.1 0.9-1.1 1.8-0.9 2.9l0.7 4.9c-0.7-0.7-1.1 0.2-0.9 0.6 0.1 0.3 0.5 1.3 1.1 0.4 0.8 1.5 1.6 4.4 2.7 5.7 3.4 4 7.8 7.6 11.4 11.2 0.9-0.2 1.6-0.2 1.8-0.8 0.3 0.6-0.3 1.2-0.8 1.3 1.6 1 3.4 1.9 5.8 2.1 3.1 0.2 6 0.7 8.7 1.4 1.4-0.4 2.8-0.6 4.3-0.7 0.5 0 0.8-0.8 1.4-1l0.1-1c0.6 0.9 0.5-0.3 0.1-0.9 0.7 0.6 0.9 1.1 1.2 1.5 0-0.3 0.8-1.4 0.8-0.1l0.2-1.3c0.3-0.2 0.4 1.1 0.7 0.2 0.3-0.9 0.9-0.2 1.5-0.5-0.2 0.4-0.1 1.2 0.6 0.7l0.8-0.7c0.5 1.2 1.3 0.7 1.7 0.5 4.4-2.8 8.8-6.1 13-9.4l-0.1 1.3 0.5-1.6c0.5 0.5 0.9 0.1 1.1-0.2 0.6-1 1.4-2 2.7-2.9-1.6 4.3-3.5 7.7-5.9 10.5l-1 1.2c0 0.7-0.2 1.6-1 1.7-0.4 0.1-1.2-0.2-1.8 0.4-0.3 0.4 0.7 1.2-0.1 0.6-0.7-0.5-1.4 0-2.2 0.2-0.6 0.2 0.4 0.8 0.6 1.2 0.2 0.4 0.4 0.8 0.3 1.3l-1.1-1.2c-1.3 0.7-2.1 2-3.2 3-0.5 0.4-0.3 1.1-0.3 1.7-0.7 0-1.5-0.2-1.9 0.2-0.3 0.4-0.2 1-0.2 1.6-1-0.1-1.1-1.6-2-1.3-0.9 0.2-1.9 0.3-2.7 0.8 0.6 1.2-1 0.5-0.8 0.7-1.5-0.9-2.8-1.6-4.4-1-3.4-1.1-7.6-0.6-10.7-0.2 0-0.5 0.1-1-0.1-1.1-0.2 0.5-0.8 0.3-0.7 0.3-1.9-1.3-3.8-2.1-5.8-3.2-1.8 0.2-3.5-0.7-4-1.2-1.4-1.3-3-0.6-4.3-0.9-2.8-0.7-3.8-3.6-4.1-5.6-0.2-1-1-1.4-1.3-1.3-1.3-4.2-3.3-8-4.9-11.9-0.4-1-0.3-2-0.3-3.1 0.5 0.2 1 0.1 0.9-0.6-0.5-3.3-1.7-5.8-3-8.2 0.7-3.4 0.8-7.4 2.4-10.4 1.4-2.7 4-4.1 5.8-6.4 0.6-0.8 0.6-1.9 1.2-2.6 2-2 4-4.1 6.2-5.9 1-0.8 2.2 0 3.7-0.3 0.5-1.8 2.5-3.4 4.4-2.9 0.8 0.2 2.4-1.9 2.9-2.1 0.8-0.3 0.4 0.8 0.4 1.5 1.9-1.5 4.5-2.3 6.9-3.2" fill="black" fill-rule="nonzero" stroke="none" stroke-width="1" stroke-linecap="butt" stroke-linejoin="miter" stroke-miterlimit="10" stroke-dasharray="" stroke-dashoffset="0" font-family="none" font-weight="none" font-size="none" text-anchor="none" style="mix-blend-mode: normal"></path></g><g transform="matrix(1,0,0,1,75.96846663630073,90)"><svg viewBox="0 0 168.06306672739854 180" height="180" width="168.06306672739854"><g><svg viewBox="0 0 168.06306672739854 180" height="180" width="168.06306672739854"><g><svg viewBox="0 0 192 205.63709012912975" height="180" width="168.06306672739854"><g transform="matrix(1,0,0,1,0,103.16032850993935)"><svg viewBox="0 0 192 102.4767616191904" height="102.4767616191904" width="192"><g id="SvgjsG1142"><svg viewBox="0 0 192 102.4767616191904" height="102.4767616191904" width="192" id="SvgjsSvg1141"><g><svg viewBox="0 0 192 102.4767616191904" height="102.4767616191904" width="192"><g transform="matrix(1,0,0,1,0,0)"><svg width="192" viewBox="3.7 -35 66.7 35.6" height="102.4767616191904" data-palette-color="url(#01fca9ca-97d0-4004-b751-b46da82d0bb0)"></svg></g></svg></g></svg></g></svg></g><g transform="matrix(1,0,0,1,36.672,0)"><svg viewBox="0 0 118.656 88.20650954742061" height="88.20650954742061" width="118.656"><g><svg xmlns="http://www.w3.org/2000/svg" xmlns:xlink="http://www.w3.org/1999/xlink" version="1.1" x="0" y="0" viewBox="3.035 17.316000000000003 94.78999999999999 70.46499999999999" enable-background="new 0 0 100 100" xml:space="preserve" height="88.20650954742061" width="118.656" class="icon-icon-0" data-fill-palette-color="accent" id="SvgjsSvg1140"><g fill="black"><rect x="15.405" y="82.258" width="70.059" height="5.523" fill="black"></rect><path d="M22.107 75.201c0-1.852-1.501-3.353-3.35-3.353-1.852 0-3.353 1.501-3.353 3.353 0 1.847 1.501 3.354 3.353 3.354C20.606 78.555 22.107 77.048 22.107 75.201z" fill="black"></path><path d="M37.946 75.201c0-1.852-1.499-3.353-3.351-3.353s-3.35 1.501-3.35 3.353c0 1.847 1.498 3.354 3.35 3.354S37.946 77.048 37.946 75.201z" fill="black"></path><path d="M53.784 75.201c0-1.852-1.501-3.353-3.347-3.353-1.852 0-3.353 1.501-3.353 3.353 0 1.847 1.501 3.354 3.353 3.354C52.283 78.555 53.784 77.048 53.784 75.201z" fill="black"></path><path d="M69.62 75.201c0-1.852-1.498-3.353-3.347-3.353-1.852 0-3.351 1.501-3.351 3.353 0 1.847 1.499 3.354 3.351 3.354C68.122 78.555 69.62 77.048 69.62 75.201z" fill="black"></path><path d="M82.117 71.849c-1.857 0-3.358 1.501-3.358 3.353 0 1.847 1.501 3.354 3.358 3.354 1.846 0 3.347-1.507 3.347-3.354C85.464 73.35 83.963 71.849 82.117 71.849z" fill="black"></path><path d="M89.984 35.655c-4.33 0-7.84 3.511-7.84 7.84 0 1.674 0.528 3.221 1.421 4.494l-15.344 9.23L54.374 41.723c2.328-1.359 3.897-3.878 3.897-6.77 0-3.763-2.652-6.903-6.188-7.662v-3.786h3.553v-2.63h-3.553v-3.559h-2.63v3.559h-3.562v2.63h3.562v3.676c-3.867 0.483-6.861 3.775-6.861 7.772 0 2.713 1.378 5.104 3.472 6.511L29.489 57.22l-12.546-8.761c1.107-1.352 1.772-3.08 1.772-4.964 0-4.329-3.51-7.84-7.84-7.84s-7.84 3.511-7.84 7.84c0 4.33 3.51 7.841 7.84 7.841 0.453 0 0.896-0.047 1.327-0.121l3.168 16.931H85.5l3.164-16.93c0.431 0.073 0.87 0.12 1.32 0.12 4.33 0 7.841-3.511 7.841-7.841C97.825 39.166 94.314 35.655 89.984 35.655zM10.876 47.567c-2.248 0-4.07-1.823-4.07-4.072 0-2.248 1.822-4.071 4.07-4.071 2.249 0 4.071 1.823 4.071 4.071C14.947 45.744 13.125 47.567 10.876 47.567zM50.432 39.025c-2.249 0-4.07-1.823-4.07-4.072 0-2.248 1.821-4.071 4.07-4.071s4.071 1.823 4.071 4.071C54.503 37.202 52.681 39.025 50.432 39.025zM89.984 47.567c-2.249 0-4.069-1.823-4.069-4.072 0-2.248 1.82-4.071 4.069-4.071 2.25 0 4.072 1.823 4.072 4.071C94.057 45.744 92.234 47.567 89.984 47.567z" fill="black"></path></g></svg></g></svg></g><g></g></svg></g></svg></g></svg></g></svg></g><defs><mask></mask></defs><mask><g id="SvgjsG1139"><svg viewBox="0 0 320 360" height="360" width="320"><g><svg></svg></g><g><svg viewBox="0 0 320 360" height="360" width="320"><g><path transform="translate(-74.99272,-51.79039) scale(4.65793,4.65793)" d="M20.6 59.9l0.8 1-0.4-1.3c-0.1-0.6-0.8 0.1-0.4 0.3M21.5 59.3c0.3 0.5 0.6 1 0.6 1.5 0 0.7 0.6 1 1.1 1.2-0.7-0.8-1.1-3-1.7-2.7M59.9 16.9c1.7 0 3.3-0.2 5.1 0.2 4.4 1.1 8.1 3.3 10.6 6.4l7 11.2c0.3 2.8 0.9 5.9 0.8 9.3 0.7 0 0.6-1 1.4-1.2-0.8 2-1.2 4.5-1.4 7.4-0.5-1.6 0-4 0.1-5.3-0.7 1.1-1.1 0.3-1.1-0.2 0.1-0.8-0.3-0.7-0.6-1-1.1-1-1.8-2.1-2.6-3.8 0.5-1.3 0.6-3.2-1-4.2-0.5-0.3-1.1-0.8-1.4-1.6-0.4-1.1-1.1-2.4-0.9-4.1 0.1-0.5-1.5 1.1-2.4 0.4-3.9-2.7-7.8-5.8-12.5-8.4-2.5 0-4.3-0.9-5.2-2-0.8-1-0.2-2.3 1-2.4 0.7 0 1.5-0.2 2.1 0.2 0.1-0.4 0.5-0.9 1-0.9M50 14.6l0.2 0.1c1 0.2 1.5 1.6 2.6 1.1 0 0.7 0.1 1.4-0.1 1.9-0.3 0.8-1.2 0.8-1.9 0.8-6.7-0.4-10.6 2.4-14.7 4.8-1.1 0.7-2.3 1.2-3.2 2.1-4.3 4-9 7.7-10.1 15.1l-0.9 8.2c-0.1 0.9-1.1 1.8-0.9 2.9l0.7 4.9c-0.7-0.7-1.1 0.2-0.9 0.6 0.1 0.3 0.5 1.3 1.1 0.4 0.8 1.5 1.6 4.4 2.7 5.7 3.4 4 7.8 7.6 11.4 11.2 0.9-0.2 1.6-0.2 1.8-0.8 0.3 0.6-0.3 1.2-0.8 1.3 1.6 1 3.4 1.9 5.8 2.1 3.1 0.2 6 0.7 8.7 1.4 1.4-0.4 2.8-0.6 4.3-0.7 0.5 0 0.8-0.8 1.4-1l0.1-1c0.6 0.9 0.5-0.3 0.1-0.9 0.7 0.6 0.9 1.1 1.2 1.5 0-0.3 0.8-1.4 0.8-0.1l0.2-1.3c0.3-0.2 0.4 1.1 0.7 0.2 0.3-0.9 0.9-0.2 1.5-0.5-0.2 0.4-0.1 1.2 0.6 0.7l0.8-0.7c0.5 1.2 1.3 0.7 1.7 0.5 4.4-2.8 8.8-6.1 13-9.4l-0.1 1.3 0.5-1.6c0.5 0.5 0.9 0.1 1.1-0.2 0.6-1 1.4-2 2.7-2.9-1.6 4.3-3.5 7.7-5.9 10.5l-1 1.2c0 0.7-0.2 1.6-1 1.7-0.4 0.1-1.2-0.2-1.8 0.4-0.3 0.4 0.7 1.2-0.1 0.6-0.7-0.5-1.4 0-2.2 0.2-0.6 0.2 0.4 0.8 0.6 1.2 0.2 0.4 0.4 0.8 0.3 1.3l-1.1-1.2c-1.3 0.7-2.1 2-3.2 3-0.5 0.4-0.3 1.1-0.3 1.7-0.7 0-1.5-0.2-1.9 0.2-0.3 0.4-0.2 1-0.2 1.6-1-0.1-1.1-1.6-2-1.3-0.9 0.2-1.9 0.3-2.7 0.8 0.6 1.2-1 0.5-0.8 0.7-1.5-0.9-2.8-1.6-4.4-1-3.4-1.1-7.6-0.6-10.7-0.2 0-0.5 0.1-1-0.1-1.1-0.2 0.5-0.8 0.3-0.7 0.3-1.9-1.3-3.8-2.1-5.8-3.2-1.8 0.2-3.5-0.7-4-1.2-1.4-1.3-3-0.6-4.3-0.9-2.8-0.7-3.8-3.6-4.1-5.6-0.2-1-1-1.4-1.3-1.3-1.3-4.2-3.3-8-4.9-11.9-0.4-1-0.3-2-0.3-3.1 0.5 0.2 1 0.1 0.9-0.6-0.5-3.3-1.7-5.8-3-8.2 0.7-3.4 0.8-7.4 2.4-10.4 1.4-2.7 4-4.1 5.8-6.4 0.6-0.8 0.6-1.9 1.2-2.6 2-2 4-4.1 6.2-5.9 1-0.8 2.2 0 3.7-0.3 0.5-1.8 2.5-3.4 4.4-2.9 0.8 0.2 2.4-1.9 2.9-2.1 0.8-0.3 0.4 0.8 0.4 1.5 1.9-1.5 4.5-2.3 6.9-3.2" fill="black" fill-rule="nonzero" stroke="none" stroke-width="1" stroke-linecap="butt" stroke-linejoin="miter" stroke-miterlimit="10" stroke-dasharray="" stroke-dashoffset="0" font-family="none" font-weight="none" font-size="none" text-anchor="none" style="mix-blend-mode: normal"></path></g><g transform="matrix(1,0,0,1,75.96846663630073,90)"><svg viewBox="0 0 168.06306672739854 180" height="180" width="168.06306672739854"><g><svg viewBox="0 0 168.06306672739854 180" height="180" width="168.06306672739854"><g><svg viewBox="0 0 192 205.63709012912975" height="180" width="168.06306672739854"><g transform="matrix(1,0,0,1,0,103.16032850993935)"><svg viewBox="0 0 192 102.4767616191904" height="102.4767616191904" width="192"><g id="SvgjsG1138"><svg viewBox="0 0 192 102.4767616191904" height="102.4767616191904" width="192" id="SvgjsSvg1137"><g><svg viewBox="0 0 192 102.4767616191904" height="102.4767616191904" width="192"><g transform="matrix(1,0,0,1,0,0)"><svg width="192" viewBox="3.7 -35 66.7 35.6" height="102.4767616191904" data-palette-color="url(#01fca9ca-97d0-4004-b751-b46da82d0bb0)"><path d="M23-34.4Q26.2-34.4 28.7-32.93 31.2-31.45 32.6-28.88 34-26.3 34-23.1L34-23.1 34-22.45Q34-19.25 32.6-16.65 31.2-14.05 28.7-12.58 26.2-11.1 23-11.1L23-11.1 14.75-11.1 14.75 0 3.7 0 3.7-34.4 23-34.4ZM14.75-26.25L14.75-19.15 19.3-19.15Q21.05-19.15 21.93-20.05 22.8-20.95 22.8-22.5L22.8-22.5 22.8-22.9Q22.8-24.5 21.93-25.38 21.05-26.25 19.3-26.25L19.3-26.25 14.75-26.25ZM54.25-35Q60.85-35 65.1-32.33 69.35-29.65 69.45-24.4L69.45-24.4 69.45-23.8 59.1-23.8 59.1-24Q59.1-25.5 58-26.5 56.9-27.5 54.65-27.5L54.65-27.5Q52.45-27.5 51.27-26.85 50.1-26.2 50.1-25.25L50.1-25.25Q50.1-23.9 51.7-23.25 53.3-22.6 56.85-21.9L56.85-21.9Q61-21.05 63.67-20.13 66.35-19.2 68.35-17.1 70.35-15 70.4-11.4L70.4-11.4Q70.4-5.3 66.27-2.35 62.15 0.6 55.25 0.6L55.25 0.6Q47.2 0.6 42.72-2.1 38.25-4.8 38.25-11.65L38.25-11.65 48.7-11.65Q48.7-9.05 50.05-8.18 51.4-7.3 54.25-7.3L54.25-7.3Q56.35-7.3 57.72-7.75 59.1-8.2 59.1-9.6L59.1-9.6Q59.1-10.85 57.57-11.48 56.05-12.1 52.6-12.8L52.6-12.8Q48.4-13.7 45.65-14.68 42.9-15.65 40.85-17.9 38.8-20.15 38.8-24L38.8-24Q38.8-29.65 43.17-32.33 47.55-35 54.25-35L54.25-35Z" opacity="1" transform="matrix(1,0,0,1,0,0)" fill="black" class="wordmark-text-0" id="SvgjsPath1136"></path></svg></g></svg></g></svg></g></svg></g><g transform="matrix(1,0,0,1,36.672,0)"><svg viewBox="0 0 118.656 88.20650954742061" height="88.20650954742061" width="118.656"><g><svg xmlns="http://www.w3.org/2000/svg" xmlns:xlink="http://www.w3.org/1999/xlink" version="1.1" x="0" y="0" viewBox="3.035 17.316000000000003 94.78999999999999 70.46499999999999" enable-background="new 0 0 100 100" xml:space="preserve" height="88.20650954742061" width="118.656" class="icon-icon-0" data-fill-palette-color="accent" id="SvgjsSvg1135"><g fill="black"><rect x="15.405" y="82.258" width="70.059" height="5.523" fill="black"></rect><path d="M22.107 75.201c0-1.852-1.501-3.353-3.35-3.353-1.852 0-3.353 1.501-3.353 3.353 0 1.847 1.501 3.354 3.353 3.354C20.606 78.555 22.107 77.048 22.107 75.201z" fill="black"></path><path d="M37.946 75.201c0-1.852-1.499-3.353-3.351-3.353s-3.35 1.501-3.35 3.353c0 1.847 1.498 3.354 3.35 3.354S37.946 77.048 37.946 75.201z" fill="black"></path><path d="M53.784 75.201c0-1.852-1.501-3.353-3.347-3.353-1.852 0-3.353 1.501-3.353 3.353 0 1.847 1.501 3.354 3.353 3.354C52.283 78.555 53.784 77.048 53.784 75.201z" fill="black"></path><path d="M69.62 75.201c0-1.852-1.498-3.353-3.347-3.353-1.852 0-3.351 1.501-3.351 3.353 0 1.847 1.499 3.354 3.351 3.354C68.122 78.555 69.62 77.048 69.62 75.201z" fill="black"></path><path d="M82.117 71.849c-1.857 0-3.358 1.501-3.358 3.353 0 1.847 1.501 3.354 3.358 3.354 1.846 0 3.347-1.507 3.347-3.354C85.464 73.35 83.963 71.849 82.117 71.849z" fill="black"></path><path d="M89.984 35.655c-4.33 0-7.84 3.511-7.84 7.84 0 1.674 0.528 3.221 1.421 4.494l-15.344 9.23L54.374 41.723c2.328-1.359 3.897-3.878 3.897-6.77 0-3.763-2.652-6.903-6.188-7.662v-3.786h3.553v-2.63h-3.553v-3.559h-2.63v3.559h-3.562v2.63h3.562v3.676c-3.867 0.483-6.861 3.775-6.861 7.772 0 2.713 1.378 5.104 3.472 6.511L29.489 57.22l-12.546-8.761c1.107-1.352 1.772-3.08 1.772-4.964 0-4.329-3.51-7.84-7.84-7.84s-7.84 3.511-7.84 7.84c0 4.33 3.51 7.841 7.84 7.841 0.453 0 0.896-0.047 1.327-0.121l3.168 16.931H85.5l3.164-16.93c0.431 0.073 0.87 0.12 1.32 0.12 4.33 0 7.841-3.511 7.841-7.841C97.825 39.166 94.314 35.655 89.984 35.655zM10.876 47.567c-2.248 0-4.07-1.823-4.07-4.072 0-2.248 1.822-4.071 4.07-4.071 2.249 0 4.071 1.823 4.071 4.071C14.947 45.744 13.125 47.567 10.876 47.567zM50.432 39.025c-2.249 0-4.07-1.823-4.07-4.072 0-2.248 1.821-4.071 4.07-4.071s4.071 1.823 4.071 4.071C54.503 37.202 52.681 39.025 50.432 39.025zM89.984 47.567c-2.249 0-4.069-1.823-4.069-4.072 0-2.248 1.82-4.071 4.069-4.071 2.25 0 4.072 1.823 4.072 4.071C94.057 45.744 92.234 47.567 89.984 47.567z" fill="black"></path></g></svg></g></svg></g><g></g></svg></g></svg></g></svg></g></svg></g><defs><mask></mask></defs></svg><rect width="320" height="360" fill="black" stroke="none" visibility="hidden"></rect></g></mask></svg><rect width="320" height="360" fill="black" stroke="none" visibility="hidden"></rect></g></mask></svg><rect width="320" height="360" fill="black" stroke="none" visibility="hidden"></rect></g></mask><linearGradient x1="0" x2="1" y1="0.5" y2="0.5" id="91b352e6-5c19-4a47-8aaf-55b15af7cf48"><stop stop-color="#ffa62e" offset="0"></stop><stop stop-color="#f71b3d" offset="1"></stop></linearGradient></svg><rect width="320" height="360" fill="none" stroke="none" visibility="hidden"></rect></g></svg></g></svg>